<svg width="1440" height="1885" viewBox="0 0 1440 1885" fill="none" xmlns="http://www.w3.org/2000/svg">
<g opacity="0.5">
<rect opacity="0.0416667" x="-68.4547" y="13.7172" width="239.511" height="239.511" rx="68.5" transform="rotate(-80.1837 -68.4547 13.7172)" stroke="white" stroke-opacity="0.1"/>
<rect opacity="0.0833333" x="-65.8843" y="11.2321" width="239.511" height="239.511" rx="68.5" transform="rotate(-75.1837 -65.8843 11.2321)" stroke="white" stroke-opacity="0.1"/>
<rect opacity="0.125" x="-63.3186" y="8.74974" width="239.511" height="239.511" rx="68.5" transform="rotate(-70.1837 -63.3186 8.74974)" stroke="white" stroke-opacity="0.1"/>
<rect opacity="0.166667" x="-60.7578" y="6.26961" width="239.511" height="239.511" rx="68.5" transform="rotate(-65.1837 -60.7578 6.26961)" stroke="white" stroke-opacity="0.1"/>
<rect opacity="0.208333" x="-58.202" y="3.79127" width="239.511" height="239.511" rx="68.5" transform="rotate(-60.1837 -58.202 3.79127)" stroke="white" stroke-opacity="0.1"/>
<rect opacity="0.25" x="-55.6514" y="1.31443" width="239.511" height="239.511" rx="68.5" transform="rotate(-55.1837 -55.6514 1.31443)" stroke="white" stroke-opacity="0.1"/>
<rect opacity="0.291667" x="-53.1061" y="-1.16148" width="239.511" height="239.511" rx="68.5" transform="rotate(-50.1837 -53.1061 -1.16148)" stroke="white" stroke-opacity="0.1"/>
<rect opacity="0.333333" x="-50.5662" y="-3.63691" width="239.511" height="239.511" rx="68.5" transform="rotate(-45.1837 -50.5662 -3.63691)" stroke="white" stroke-opacity="0.1"/>
<rect opacity="0.375" x="-48.0317" y="-6.11232" width="239.511" height="239.511" rx="68.5" transform="rotate(-40.1837 -48.0317 -6.11232)" stroke="white" stroke-opacity="0.1"/>
<rect opacity="0.416667" x="-45.5025" y="-8.58812" width="239.511" height="239.511" rx="68.5" transform="rotate(-35.1837 -45.5025 -8.58812)" stroke="white" stroke-opacity="0.1"/>
<rect opacity="0.458333" x="-42.9786" y="-11.0649" width="239.511" height="239.511" rx="68.5" transform="rotate(-30.1837 -42.9786 -11.0649)" stroke="white" stroke-opacity="0.1"/>
<rect opacity="0.5" x="-40.4599" y="-13.5431" width="239.511" height="239.511" rx="68.5" transform="rotate(-25.1837 -40.4599 -13.5431)" stroke="white" stroke-opacity="0.1"/>
<rect opacity="0.541667" x="-37.9464" y="-16.023" width="239.511" height="239.511" rx="68.5" transform="rotate(-20.1837 -37.9464 -16.023)" stroke="white" stroke-opacity="0.1"/>
<rect opacity="0.583333" x="-35.4376" y="-18.5052" width="239.511" height="239.511" rx="68.5" transform="rotate(-15.1837 -35.4376 -18.5052)" stroke="white" stroke-opacity="0.1"/>
<rect opacity="0.625" x="-32.9336" y="-20.9901" width="239.511" height="239.511" rx="68.5" transform="rotate(-10.1837 -32.9336 -20.9901)" stroke="white" stroke-opacity="0.1"/>
<rect opacity="0.666667" x="-30.434" y="-23.4781" width="239.511" height="239.511" rx="68.5" transform="rotate(-5.18368 -30.434 -23.4781)" stroke="white" stroke-opacity="0.1"/>
<rect opacity="0.708333" x="-27.9385" y="-25.9696" width="239.511" height="239.511" rx="68.5" transform="rotate(-0.183679 -27.9385 -25.9696)" stroke="white" stroke-opacity="0.1"/>
<rect opacity="0.75" x="-25.4466" y="-28.4648" width="239.511" height="239.511" rx="68.5" transform="rotate(4.81632 -25.4466 -28.4648)" stroke="white" stroke-opacity="0.1"/>
<rect opacity="0.791667" x="-22.9585" y="-30.964" width="239.511" height="239.511" rx="68.5" transform="rotate(9.81632 -22.9585 -30.964)" stroke="white" stroke-opacity="0.1"/>
<rect opacity="0.833333" x="-20.4734" y="-33.4677" width="239.511" height="239.511" rx="68.5" transform="rotate(14.8163 -20.4734 -33.4677)" stroke="white" stroke-opacity="0.1"/>
<rect opacity="0.875" x="-17.991" y="-35.9761" width="239.511" height="239.511" rx="68.5" transform="rotate(19.8163 -17.991 -35.9761)" stroke="white" stroke-opacity="0.1"/>
<rect opacity="0.916667" x="-15.5109" y="-38.4894" width="239.511" height="239.511" rx="68.5" transform="rotate(24.8163 -15.5109 -38.4894)" stroke="white" stroke-opacity="0.1"/>
<rect opacity="0.958333" x="-13.0326" y="-41.0076" width="239.511" height="239.511" rx="68.5" transform="rotate(29.8163 -13.0326 -41.0076)" stroke="white" stroke-opacity="0.1"/>
<rect x="-10.5558" y="-43.5311" width="239.511" height="239.511" rx="68.5" transform="rotate(34.8163 -10.5558 -43.5311)" stroke="white" stroke-opacity="0.1"/>
</g>
<circle opacity="0.4" cx="1542" cy="439" r="353" stroke="black" stroke-opacity="0.3" stroke-width="60"/>
<circle cx="1542" cy="437" r="188.5" stroke="white" stroke-opacity="0.06" stroke-linecap="round" stroke-dasharray="4 4"/>
<circle cx="1542" cy="437" r="223.5" stroke="white" stroke-opacity="0.06" stroke-linecap="round" stroke-dasharray="4 4"/>
<g filter="url(#filter0_b_0_1)">
<circle cx="-93" cy="1226" r="353" stroke="white" stroke-opacity="0.03" stroke-width="60"/>
</g>
<g opacity="0.3" clip-path="url(#clip0_0_1)">
<path d="M189.762 1851.43L189.78 1851.44M180.079 1853.93L194.872 1860.02C196.915 1860.87 199.253 1859.89 200.095 1857.85L210.764 1831.96C211.605 1829.92 210.632 1827.58 208.59 1826.74L193.797 1820.64C191.754 1819.8 189.416 1820.78 188.574 1822.82L177.905 1848.71C177.063 1850.75 178.037 1853.09 180.079 1853.93Z" stroke="#374151" stroke-width="2" stroke-linecap="round" stroke-linejoin="round"/>
</g>
<g opacity="0.3" clip-path="url(#clip1_0_1)">
<path d="M1149.6 1859.8L1148.06 1859.36C1147.88 1860.01 1148.12 1860.7 1148.66 1861.09C1149.2 1861.49 1149.93 1861.5 1150.49 1861.13L1149.6 1859.8ZM1152.71 1848.85L1154.25 1849.29L1152.71 1848.85ZM1151.24 1858.71L1150.35 1857.38L1151.24 1858.71ZM1157.83 1858.23L1157.15 1859.68L1157.83 1858.23ZM1164 1834.2L1163.2 1832.82C1162.77 1833.06 1162.48 1833.5 1162.41 1833.99C1162.35 1834.49 1162.52 1834.98 1162.87 1835.33L1164 1834.2ZM1176.8 1847L1175.67 1848.13C1176.02 1848.48 1176.52 1848.65 1177.01 1848.59C1177.5 1848.52 1177.94 1848.23 1178.18 1847.8L1176.8 1847ZM1194.4 1816.6L1195.78 1817.4C1196.15 1816.77 1196.04 1815.98 1195.53 1815.47C1195.02 1814.96 1194.23 1814.85 1193.6 1815.22L1194.4 1816.6ZM1151.14 1860.24L1154.25 1849.29L1151.17 1848.41L1148.06 1859.36L1151.14 1860.24ZM1160.6 1844.49H1160.8V1841.29H1160.6V1844.49ZM1167.2 1850.89V1851.05H1170.4V1850.89H1167.2ZM1160.97 1857.29H1160.71V1860.49H1160.97V1857.29ZM1150.35 1857.38L1148.71 1858.47L1150.49 1861.13L1152.12 1860.04L1150.35 1857.38ZM1158.52 1856.79C1155.88 1855.53 1152.78 1855.76 1150.35 1857.38L1152.12 1860.04C1153.62 1859.04 1155.52 1858.91 1157.15 1859.68L1158.52 1856.79ZM1160.71 1857.29C1159.96 1857.29 1159.21 1857.12 1158.52 1856.79L1157.15 1859.68C1158.26 1860.21 1159.48 1860.49 1160.71 1860.49V1857.29ZM1167.2 1851.05C1167.2 1854.5 1164.41 1857.29 1160.97 1857.29V1860.49C1166.18 1860.49 1170.4 1856.26 1170.4 1851.05H1167.2ZM1160.8 1844.49C1164.33 1844.49 1167.2 1847.35 1167.2 1850.89H1170.4C1170.4 1845.58 1166.1 1841.29 1160.8 1841.29V1844.49ZM1154.25 1849.29C1155.05 1846.45 1157.65 1844.49 1160.6 1844.49V1841.29C1156.22 1841.29 1152.37 1844.2 1151.17 1848.41L1154.25 1849.29ZM1162.87 1835.33L1175.67 1848.13L1177.93 1845.87L1165.13 1833.07L1162.87 1835.33ZM1193.6 1815.22L1163.2 1832.82L1164.8 1835.58L1195.2 1817.98L1193.6 1815.22ZM1178.18 1847.8L1195.78 1817.4L1193.02 1815.8L1175.42 1846.2L1178.18 1847.8ZM1170.87 1830.53L1180.47 1840.13L1182.73 1837.87L1173.13 1828.27L1170.87 1830.53Z" fill="#374151"/>
</g>
<g opacity="0.3" clip-path="url(#clip2_0_1)">
<path d="M620 1730H628L649 1709C650.061 1707.94 650.657 1706.5 650.657 1705C650.657 1703.5 650.061 1702.06 649 1701C647.939 1699.94 646.5 1699.34 645 1699.34C643.5 1699.34 642.061 1699.94 641 1701L620 1722V1730Z" stroke="#374151" stroke-width="2" stroke-linecap="round" stroke-linejoin="round"/>
<path d="M639 1703L647 1711" stroke="#374151" stroke-width="2" stroke-linecap="round" stroke-linejoin="round"/>
</g>
<g opacity="0.3" clip-path="url(#clip3_0_1)">
<path fill-rule="evenodd" clip-rule="evenodd" d="M354.826 1712.61L366.625 1705.62C368.797 1704.33 371.601 1705.05 372.888 1707.22L384.54 1726.89C385.827 1729.06 385.11 1731.86 382.938 1733.15L371.139 1740.14C368.967 1741.43 366.163 1740.71 364.876 1738.54L353.224 1718.88C351.937 1716.7 352.654 1713.9 354.826 1712.61Z" stroke="#374151" stroke-linecap="round" stroke-linejoin="round"/>
<path d="M374.708 1732.71C375.794 1732.07 376.153 1730.67 375.509 1729.58C374.866 1728.5 373.464 1728.14 372.378 1728.78C371.292 1729.42 370.933 1730.83 371.576 1731.91C372.22 1733 373.622 1733.36 374.708 1732.71Z" fill="#374151"/>
</g>
<g clip-path="url(#clip4_0_1)">
<path fill-rule="evenodd" clip-rule="evenodd" d="M481.001 1869.61L472.02 1873.27C469.895 1874.13 467.469 1873.11 466.603 1870.99L462.42 1860.72C461.554 1858.6 462.575 1856.17 464.701 1855.31L485.228 1846.94C487.354 1846.07 489.78 1847.09 490.646 1849.22L494.829 1859.48C495.695 1861.61 494.674 1864.04 492.548 1864.9L483.567 1868.56L484.613 1871.13L488.462 1869.56C489.17 1869.27 489.979 1869.61 490.268 1870.32C490.556 1871.03 490.216 1871.84 489.507 1872.13L479.244 1876.31C478.535 1876.6 477.727 1876.26 477.438 1875.55C477.149 1874.84 477.489 1874.03 478.198 1873.74L482.047 1872.17L481.001 1869.61ZM465.746 1857.87L486.274 1849.51C486.983 1849.22 487.791 1849.56 488.08 1850.27L492.263 1860.53C492.551 1861.24 492.211 1862.05 491.502 1862.34L470.975 1870.7C470.266 1870.99 469.458 1870.65 469.169 1869.94L464.986 1859.68C464.697 1858.97 465.038 1858.16 465.746 1857.87Z" fill="#374151" fill-opacity="0.3"/>
</g>
<path d="M978 1741L992 1727L998 1733L984 1747L978 1741Z" stroke="#374151" stroke-opacity="0.3" stroke-width="2" stroke-linecap="round" stroke-linejoin="round"/>
<path d="M990 1729L987 1714L958 1707L965 1736L980 1739L990 1729Z" stroke="#374151" stroke-opacity="0.3" stroke-width="2" stroke-linecap="round" stroke-linejoin="round"/>
<path d="M958 1707L973.172 1722.17" stroke="#374151" stroke-opacity="0.3" stroke-width="2" stroke-linecap="round" stroke-linejoin="round"/>
<path d="M976 1729C978.209 1729 980 1727.21 980 1725C980 1722.79 978.209 1721 976 1721C973.791 1721 972 1722.79 972 1725C972 1727.21 973.791 1729 976 1729Z" stroke="#374151" stroke-opacity="0.3" stroke-width="2" stroke-linecap="round" stroke-linejoin="round"/>
<g clip-path="url(#clip5_0_1)">
<path d="M754.992 1850C751.231 1850.24 747.818 1851.68 745.881 1856.78C745.661 1857.36 745.131 1857.71 744.513 1857.71C743.471 1857.71 740.251 1855.12 739.333 1854.49C739.334 1862.21 742.89 1869 751.334 1869C758.446 1869 763.334 1864.9 763.334 1857.73C763.334 1857.44 763.273 1857.16 763.243 1856.88L754.992 1850V1850ZM782.262 1821C780.84 1821 779.508 1821.63 778.492 1822.54C759.328 1839.66 757.334 1840.06 757.334 1845.1C757.334 1846.39 757.639 1847.61 758.153 1848.73L764.136 1853.72C764.812 1853.88 765.508 1854 766.235 1854C772.058 1854 775.433 1849.74 786.031 1829.96C786.723 1828.61 787.334 1827.16 787.334 1825.65C787.334 1822.93 784.897 1821 782.262 1821Z" fill="#374151" fill-opacity="0.2"/>
</g>
<defs>
<filter id="filter0_b_0_1" x="-480" y="839" width="774" height="774" filterUnits="userSpaceOnUse" color-interpolation-filters="sRGB">
<feFlood flood-opacity="0" result="BackgroundImageFix"/>
<feGaussianBlur in="BackgroundImageFix" stdDeviation="2"/>
<feComposite in2="SourceAlpha" operator="in" result="effect1_backgroundBlur_0_1"/>
<feBlend mode="normal" in="SourceGraphic" in2="effect1_backgroundBlur_0_1" result="shape"/>
</filter>
<clipPath id="clip0_0_1">
<rect width="48" height="48" fill="white" transform="translate(181.29 1809) rotate(22.3981)"/>
</clipPath>
<clipPath id="clip1_0_1">
<rect width="48" height="48" fill="white" transform="translate(1148 1815)"/>
</clipPath>
<clipPath id="clip2_0_1">
<rect width="48" height="48" fill="white" transform="translate(612 1690)"/>
</clipPath>
<clipPath id="clip3_0_1">
<rect width="48" height="48" fill="white" transform="translate(336 1714.47) rotate(-30.6492)"/>
</clipPath>
<clipPath id="clip4_0_1">
<rect width="33.2503" height="33.2503" fill="white" transform="translate(458 1853.55) rotate(-22.1717)"/>
</clipPath>
<clipPath id="clip5_0_1">
<rect width="48" height="48" fill="white" transform="translate(739.334 1821)"/>
</clipPath>
</defs>
</svg>
